<svg xmlns="http://www.w3.org/2000/svg" width="642" height="133" viewBox="0 0 642 133" version="1.1"><path d="M 59 31.292 C 55.761 38.031, 52.055 39.397, 45.568 36.245 L 41.277 34.160 37.698 37.636 L 34.119 41.112 36.041 45.595 C 38.143 50.500, 38.395 50.161, 31.310 51.973 C 26.144 53.295, 25.613 54.783, 25.894 67.183 C 25.984 71.138, 26.349 71.964, 28.250 72.500 C 34.369 74.225, 35.757 75.234, 36.936 78.814 C 37.988 82.010, 37.881 83.124, 36.134 87.194 L 34.119 91.888 37.698 95.364 L 41.277 98.840 45.586 96.746 C 51.430 93.907, 56.865 95.324, 58.907 100.221 C 60.497 104.035, 60.706 104.651, 60.875 106 C 60.944 106.550, 63.386 107, 66.302 107 L 71.605 107 73.399 102.011 C 74.956 97.681, 75.688 96.874, 78.946 95.898 C 82.136 94.942, 83.383 95.076, 87.251 96.787 L 91.802 98.800 94.901 95.602 C 98.453 91.938, 98.691 90.432, 96.268 86.973 C 95.316 85.613, 94.707 84.500, 94.915 84.500 C 95.123 84.500, 94.972 83.487, 94.579 82.250 C 93.974 80.343, 93.159 80, 89.230 80 C 85.513 80, 83.992 80.565, 81.548 82.852 C 75.361 88.642, 66.590 90.373, 58.770 87.348 C 53.656 85.369, 50.578 82.780, 47.380 77.770 C 42.851 70.672, 41.465 71, 76 71 L 107 71 107 66.198 L 107 61.395 102.144 59.649 C 97.994 58.156, 97.120 57.365, 96.134 54.201 C 94.914 50.291, 94.996 49.200, 96.846 44.685 C 98.394 40.908, 98.429 41.038, 94.901 37.398 L 91.802 34.200 87.251 36.213 C 83.383 37.924, 82.136 38.058, 78.946 37.102 C 75.688 36.126, 74.956 35.319, 73.399 30.989 L 71.605 26 66.552 26.045 L 61.500 26.091 59 31.292 M 58.297 45.804 C 51.876 48.395, 45 55.188, 45 58.942 L 45 62 66.500 62 C 78.325 62, 88 61.605, 88 61.122 C 88 58.733, 84.795 53.163, 81.828 50.398 C 75.285 44.299, 66.351 42.555, 58.297 45.804" stroke="none" fill="#ffffff" fill-rule="evenodd"/><path d="M 313.571 33.571 C 311.758 35.385, 311.550 38.291, 313.035 41.066 C 314.325 43.476, 320.156 43.701, 322.429 41.429 C 326.011 37.846, 323.265 32, 318 32 C 316.429 32, 314.436 32.707, 313.571 33.571 M 564.571 33.571 C 562.758 35.385, 562.550 38.291, 564.035 41.066 C 565.325 43.476, 571.156 43.701, 573.429 41.429 C 577.011 37.846, 574.265 32, 569 32 C 567.429 32, 565.436 32.707, 564.571 33.571 M 299 61.500 L 299 86 304 86 L 309 86 309 61.500 L 309 37 304 37 L 299 37 299 61.500 M 485 43.485 L 485 49.971 481.750 47.989 C 477.176 45.201, 469.556 45.343, 463.921 48.323 C 455.327 52.868, 451.468 65.936, 455.896 75.500 C 460.641 85.749, 471.958 89.986, 481.265 84.998 C 484.365 83.336, 485 83.251, 485 84.498 C 485 85.634, 486.219 86, 490 86 L 495 86 495 61.500 L 495 37 490 37 L 485 37 485 43.485 M 154 62 L 154 86 168.500 86 L 183 86 183 82 L 183 78 173.500 78 L 164 78 164 72 L 164 66 173.500 66 L 183 66 183 62 L 183 58 173.500 58 L 164 58 164 52 L 164 46 173.500 46 L 183 46 183 42 L 183 38 168.500 38 L 154 38 154 62 M 419.235 61.372 C 414.706 74.275, 411 85.095, 411 85.416 C 411 85.737, 413.192 86, 415.870 86 L 420.740 86 422.010 81.464 L 423.280 76.929 432.309 77.214 L 441.338 77.500 442.752 81.750 C 444.161 85.982, 444.188 86, 449.083 86 C 451.788 86, 453.998 85.888, 453.995 85.750 C 453.992 85.612, 450.241 74.925, 445.659 62 L 437.328 38.500 432.399 38.206 L 427.470 37.912 419.235 61.372 M 266.500 47.662 C 256.589 52.887, 252.293 64.586, 256.548 74.768 C 262.275 88.475, 280.770 91.381, 290.288 80.069 C 298.447 70.374, 295.546 54.555, 284.458 48.275 C 279.687 45.572, 271.024 45.277, 266.500 47.662 M 343 46.656 C 342.175 46.989, 340.712 47.947, 339.750 48.785 C 338.174 50.158, 338 50.145, 338 48.655 C 338 47.336, 336.986 47, 333 47 L 328 47 328 66.500 L 328 86 333 86 L 338 86 338 73.056 C 338 61.040, 338.161 59.932, 340.250 57.611 C 343.491 54.008, 348.736 53.736, 352 57 C 353.802 58.802, 354 60.333, 354 72.500 L 354 86 359 86 L 364 86 364 71.968 C 364 56.724, 363.191 53.283, 358.615 49.063 C 356.571 47.178, 354.673 46.561, 350.236 46.338 C 347.081 46.180, 343.825 46.323, 343 46.656 M 378.871 48.006 C 367.172 54.188, 364.288 71.175, 373.298 80.834 C 381.164 89.266, 397.120 89.019, 403.932 80.359 C 406.521 77.067, 406.251 76.050, 402.147 73.654 L 398.954 71.789 396.931 74.360 C 392.410 80.108, 382.347 79.495, 378.709 73.250 L 376.816 70 392.408 70 L 408 70 407.994 66.750 C 407.980 58.508, 402.922 50.119, 396.298 47.351 C 391.640 45.405, 383.193 45.722, 378.871 48.006 M 511.635 48.073 C 509.451 49.791, 509 49.876, 509 48.573 C 509 47.352, 507.880 47, 504 47 L 499 47 499 66.500 L 499 86 504 86 L 509 86 509 73.056 C 509 60.937, 509.149 59.939, 511.333 57.399 C 514.068 54.219, 519.066 53.844, 522.101 56.591 C 523.792 58.122, 524 59.824, 524 72.155 L 524 86 529 86 L 534 86 534.015 73.750 C 534.031 60.397, 534.891 57.299, 539.151 55.257 C 542.589 53.608, 547.332 55.239, 548.862 58.597 C 549.518 60.036, 550 66.369, 550 73.547 L 550 86 555.072 86 L 560.144 86 559.822 71.250 C 559.462 54.762, 558.663 52.030, 553.102 48.287 C 547.397 44.447, 537.110 45.547, 533.057 50.432 C 531.902 51.822, 531.381 51.664, 528.345 48.998 C 525.465 46.469, 524.096 46, 519.600 46 C 515.722 46, 513.552 46.565, 511.635 48.073 M 594 46.656 C 593.175 46.989, 591.712 47.947, 590.750 48.785 C 589.174 50.158, 589 50.145, 589 48.655 C 589 47.336, 587.986 47, 584 47 L 579 47 579 66.500 L 579 86 584 86 L 589 86 589 73.056 C 589 61.040, 589.161 59.932, 591.250 57.611 C 594.491 54.008, 599.736 53.736, 603 57 C 604.802 58.802, 605 60.333, 605 72.500 L 605 86 610 86 L 615 86 615 71.968 C 615 56.724, 614.191 53.283, 609.615 49.063 C 607.571 47.178, 605.673 46.561, 601.236 46.338 C 598.081 46.180, 594.825 46.323, 594 46.656 M 188.022 60.750 C 188.047 76.602, 189.498 81.504, 195.192 84.976 C 199.516 87.612, 206.458 87.628, 210.750 85.011 C 213.402 83.394, 214 83.303, 214 84.515 C 214 85.608, 215.186 86, 218.500 86 L 223 86 223 66.500 L 223 47 218.500 47 L 214 47 213.994 57.750 C 213.986 74.288, 212.078 78.420, 204.550 78.206 C 198.935 78.047, 198 75.505, 198 60.389 L 198 47 193 47 L 188 47 188.022 60.750 M 229 66.500 L 229 86 234 86 L 239 86 239 73.111 C 239 62.232, 239.278 59.878, 240.784 58.018 C 242.642 55.724, 245.987 55.086, 249.630 56.331 C 251.452 56.953, 252.001 56.454, 253.435 52.872 C 254.790 49.484, 254.861 48.528, 253.805 47.858 C 251.604 46.462, 243.577 46.908, 241.223 48.557 C 239.211 49.966, 239 49.966, 239 48.557 C 239 47.355, 237.859 47, 234 47 L 229 47 229 66.500 M 313 66.500 L 313 86 318 86 L 323 86 323 66.500 L 323 47 318 47 L 313 47 313 66.500 M 564 66.500 L 564 86 569 86 L 574 86 574 66.500 L 574 47 569 47 L 564 47 564 66.500 M 429.661 59.515 C 428.198 63.911, 427 67.843, 427 68.253 C 427 68.664, 429.505 69, 432.567 69 C 437.755 69, 438.090 68.858, 437.473 66.916 C 437.109 65.769, 435.802 61.837, 434.567 58.178 L 432.323 51.524 429.661 59.515 M 270.990 55.759 C 261.923 60.283, 262.285 73.714, 271.578 77.597 C 280.202 81.200, 288.563 71.069, 284.664 61.739 C 282.109 55.624, 276.327 53.095, 270.990 55.759 M 385.333 54.699 C 382.898 55.169, 378 59.346, 378 60.952 C 378 61.613, 381.696 62, 388 62 C 394.290 62, 398 61.612, 398 60.955 C 398 59.388, 393.304 55, 391.627 55 C 390.822 55, 389.564 54.838, 388.832 54.640 C 388.099 54.443, 386.525 54.469, 385.333 54.699 M 471.313 55.176 C 459.161 58.410, 461.777 78.200, 474.356 78.200 C 480.972 78.200, 485.004 73.692, 484.996 66.300 C 484.993 63.277, 481.999 56, 480.758 56 C 480.609 56, 479.140 55.624, 477.493 55.164 C 475.847 54.704, 473.066 54.710, 471.313 55.176" stroke="none" fill="#101828" fill-rule="evenodd"/><path d="M 28.500 1.378 C 17.237 5.017, 8.518 12.582, 3.582 22.997 L 0.500 29.500 0.500 66.500 L 0.500 103.500 3.582 110.003 C 7.530 118.333, 14.667 125.470, 22.997 129.418 L 29.500 132.500 66.500 132.500 L 103.500 132.500 110.003 129.418 C 118.333 125.470, 125.470 118.333, 129.418 110.003 L 132.500 103.500 132.500 66.500 L 132.500 29.500 129.418 22.997 C 125.470 14.667, 118.333 7.530, 110.003 3.582 L 103.500 0.500 68 0.293 C 41.231 0.137, 31.516 0.404, 28.500 1.378 M 59 31.292 C 55.761 38.031, 52.055 39.397, 45.568 36.245 L 41.277 34.160 37.698 37.636 L 34.119 41.112 36.041 45.595 C 38.143 50.500, 38.395 50.161, 31.310 51.973 C 26.144 53.295, 25.613 54.783, 25.894 67.183 C 25.984 71.138, 26.349 71.964, 28.250 72.500 C 34.369 74.225, 35.757 75.234, 36.936 78.814 C 37.988 82.010, 37.881 83.124, 36.134 87.194 L 34.119 91.888 37.698 95.364 L 41.277 98.840 45.586 96.746 C 51.430 93.907, 56.865 95.324, 58.907 100.221 C 60.497 104.035, 60.706 104.651, 60.875 106 C 60.944 106.550, 63.386 107, 66.302 107 L 71.605 107 73.399 102.011 C 74.956 97.681, 75.688 96.874, 78.946 95.898 C 82.136 94.942, 83.383 95.076, 87.251 96.787 L 91.802 98.800 94.901 95.602 C 98.453 91.938, 98.691 90.432, 96.268 86.973 C 95.316 85.613, 94.707 84.500, 94.915 84.500 C 95.123 84.500, 94.972 83.487, 94.579 82.250 C 93.974 80.343, 93.159 80, 89.230 80 C 85.513 80, 83.992 80.565, 81.548 82.852 C 75.361 88.642, 66.590 90.373, 58.770 87.348 C 53.656 85.369, 50.578 82.780, 47.380 77.770 C 42.851 70.672, 41.465 71, 76 71 L 107 71 107 66.198 L 107 61.395 102.144 59.649 C 97.994 58.156, 97.120 57.365, 96.134 54.201 C 94.914 50.291, 94.996 49.200, 96.846 44.685 C 98.394 40.908, 98.429 41.038, 94.901 37.398 L 91.802 34.200 87.251 36.213 C 83.383 37.924, 82.136 38.058, 78.946 37.102 C 75.688 36.126, 74.956 35.319, 73.399 30.989 L 71.605 26 66.552 26.045 L 61.500 26.091 59 31.292 M 58.297 45.804 C 51.876 48.395, 45 55.188, 45 58.942 L 45 62 66.500 62 C 78.325 62, 88 61.605, 88 61.122 C 88 58.733, 84.795 53.163, 81.828 50.398 C 75.285 44.299, 66.351 42.555, 58.297 45.804" stroke="none" fill="#465fff" fill-rule="evenodd"/></svg>