<svg xmlns="http://www.w3.org/2000/svg" width="642" height="133" viewBox="0 0 642 133" version="1.1"><path d="M 38.500 1.384 C 27.256 5.001, 18.519 12.579, 13.582 22.997 L 10.500 29.500 10.500 66.500 L 10.500 103.500 13.582 110.003 C 17.530 118.333, 24.667 125.470, 32.997 129.418 L 39.500 132.500 76.500 132.500 L 113.500 132.500 120.201 129.326 C 132.754 123.379, 141.228 111.487, 143.065 97.242 C 144.192 88.506, 144.192 44.494, 143.065 35.758 C 141.228 21.513, 132.754 9.621, 120.201 3.674 L 113.500 0.500 78 0.299 C 51.330 0.147, 41.505 0.417, 38.500 1.384 M 69 31.292 C 65.799 37.951, 62.471 39.187, 55.746 36.212 L 51.224 34.212 47.672 37.662 L 44.119 41.112 46.041 45.595 C 48.143 50.500, 48.395 50.161, 41.310 51.973 C 36.144 53.295, 35.613 54.783, 35.894 67.183 C 35.984 71.138, 36.349 71.964, 38.250 72.500 C 44.369 74.225, 45.757 75.234, 46.936 78.814 C 47.988 82.010, 47.881 83.124, 46.134 87.194 L 44.119 91.888 47.672 95.338 L 51.224 98.788 55.762 96.781 C 62.076 93.988, 66.768 95.396, 69.250 100.826 C 70.213 102.932, 71 105.183, 71 105.828 C 71 106.577, 72.914 107, 76.302 107 L 81.605 107 83.399 102.011 C 84.956 97.681, 85.688 96.874, 88.946 95.898 C 92.142 94.940, 93.384 95.076, 97.308 96.812 L 101.917 98.851 105.375 95.290 C 108.496 92.077, 108.722 91.474, 107.687 89.115 C 107.057 87.677, 106.156 86.225, 105.685 85.888 C 105.214 85.552, 104.934 85.102, 105.061 84.888 C 105.189 84.675, 104.972 83.487, 104.579 82.250 C 103.974 80.343, 103.159 80, 99.230 80 C 95.513 80, 93.992 80.565, 91.548 82.852 C 80.942 92.777, 65.073 90.013, 56.715 76.785 C 52.947 70.820, 52.037 71, 86 71 L 117 71 117 66.198 L 117 61.395 112.144 59.649 C 108.019 58.166, 107.106 57.345, 106.078 54.201 C 105.074 51.130, 105.135 49.867, 106.434 46.782 C 108.580 41.687, 108.448 40.838, 104.956 37.266 L 101.911 34.152 97.305 36.189 C 93.384 37.924, 92.142 38.059, 88.946 37.102 C 85.688 36.126, 84.956 35.319, 83.399 30.989 L 81.605 26 76.552 26.045 L 71.500 26.091 69 31.292 M 68.500 45.597 C 66.300 46.398, 63.375 48.143, 62 49.475 C 60.625 50.808, 58.487 52.821, 57.250 53.949 C 55.872 55.205, 55 57.163, 55 59 L 55 62 76.393 62 C 94.487 62, 97.875 61.769, 98.362 60.500 C 98.678 59.675, 98.510 59, 97.988 59 C 97.465 59, 96.770 57.933, 96.443 56.629 C 95.603 53.281, 89.275 47.591, 84.230 45.646 C 79.074 43.658, 73.870 43.642, 68.500 45.597" stroke="none" fill="#455dfc" fill-rule="evenodd"/><path d="M 69 31.292 C 65.799 37.951, 62.471 39.187, 55.746 36.212 L 51.224 34.212 47.672 37.662 L 44.119 41.112 46.041 45.595 C 48.143 50.500, 48.395 50.161, 41.310 51.973 C 36.144 53.295, 35.613 54.783, 35.894 67.183 C 35.984 71.138, 36.349 71.964, 38.250 72.500 C 44.369 74.225, 45.757 75.234, 46.936 78.814 C 47.988 82.010, 47.881 83.124, 46.134 87.194 L 44.119 91.888 47.672 95.338 L 51.224 98.788 55.762 96.781 C 62.076 93.988, 66.768 95.396, 69.250 100.826 C 70.213 102.932, 71 105.183, 71 105.828 C 71 106.577, 72.914 107, 76.302 107 L 81.605 107 83.399 102.011 C 84.956 97.681, 85.688 96.874, 88.946 95.898 C 92.142 94.940, 93.384 95.076, 97.308 96.812 L 101.917 98.851 105.375 95.290 C 108.496 92.077, 108.722 91.474, 107.687 89.115 C 107.057 87.677, 106.156 86.225, 105.685 85.888 C 105.214 85.552, 104.934 85.102, 105.061 84.888 C 105.189 84.675, 104.972 83.487, 104.579 82.250 C 103.974 80.343, 103.159 80, 99.230 80 C 95.513 80, 93.992 80.565, 91.548 82.852 C 80.942 92.777, 65.073 90.013, 56.715 76.785 C 52.947 70.820, 52.037 71, 86 71 L 117 71 117 66.198 L 117 61.395 112.144 59.649 C 108.019 58.166, 107.106 57.345, 106.078 54.201 C 105.074 51.130, 105.135 49.867, 106.434 46.782 C 108.580 41.687, 108.448 40.838, 104.956 37.266 L 101.911 34.152 97.305 36.189 C 93.384 37.924, 92.142 38.059, 88.946 37.102 C 85.688 36.126, 84.956 35.319, 83.399 30.989 L 81.605 26 76.552 26.045 L 71.500 26.091 69 31.292 M 324.571 33.571 C 322.758 35.385, 322.550 38.291, 324.035 41.066 C 325.325 43.476, 331.156 43.701, 333.429 41.429 C 337.011 37.846, 334.265 32, 329 32 C 327.429 32, 325.436 32.707, 324.571 33.571 M 575.571 33.571 C 573.758 35.385, 573.550 38.291, 575.035 41.066 C 576.325 43.476, 582.156 43.701, 584.429 41.429 C 588.011 37.846, 585.265 32, 580 32 C 578.429 32, 576.436 32.707, 575.571 33.571 M 309 61.500 L 309 86 314 86 L 319 86 319 61.500 L 319 37 314 37 L 309 37 309 61.500 M 495 43.485 L 495 49.971 491.750 47.989 C 487.176 45.201, 479.556 45.343, 473.921 48.323 C 465.327 52.868, 461.468 65.936, 465.896 75.500 C 470.641 85.749, 481.958 89.986, 491.265 84.998 C 494.365 83.336, 495 83.251, 495 84.498 C 495 85.634, 496.219 86, 500 86 L 505 86 505 61.500 L 505 37 500 37 L 495 37 495 43.485 M 165 62 L 165 86 179.500 86 L 194 86 194 82 L 194 78 184.500 78 L 175 78 175 72 L 175 66 184.500 66 L 194 66 194 62 L 194 58 184.500 58 L 175 58 175 52 L 175 46 184.500 46 L 194 46 194 42 L 194 38 179.500 38 L 165 38 165 62 M 429.235 61.372 C 424.706 74.275, 421 85.095, 421 85.416 C 421 85.737, 423.192 86, 425.870 86 L 430.740 86 432.010 81.464 L 433.280 76.929 442.309 77.214 L 451.338 77.500 452.752 81.750 C 454.161 85.982, 454.188 86, 459.083 86 C 461.788 86, 463.998 85.888, 463.995 85.750 C 463.992 85.612, 460.241 74.925, 455.659 62 L 447.328 38.500 442.399 38.206 L 437.470 37.912 429.235 61.372 M 68.500 45.597 C 66.300 46.398, 63.375 48.143, 62 49.475 C 60.625 50.808, 58.487 52.821, 57.250 53.949 C 55.872 55.205, 55 57.163, 55 59 L 55 62 76.393 62 C 94.487 62, 97.875 61.769, 98.362 60.500 C 98.678 59.675, 98.510 59, 97.988 59 C 97.465 59, 96.770 57.933, 96.443 56.629 C 95.603 53.281, 89.275 47.591, 84.230 45.646 C 79.074 43.658, 73.870 43.642, 68.500 45.597 M 276.500 47.662 C 266.589 52.887, 262.293 64.586, 266.548 74.768 C 272.275 88.475, 290.770 91.381, 300.288 80.069 C 308.447 70.374, 305.546 54.555, 294.458 48.275 C 289.687 45.572, 281.024 45.277, 276.500 47.662 M 353 46.656 C 352.175 46.989, 350.712 47.947, 349.750 48.785 C 348.174 50.158, 348 50.145, 348 48.655 C 348 47.336, 346.986 47, 343 47 L 338 47 338 66.500 L 338 86 343 86 L 348 86 348 73.056 C 348 61.040, 348.161 59.932, 350.250 57.611 C 353.491 54.008, 358.736 53.736, 362 57 C 363.802 58.802, 364 60.333, 364 72.500 L 364 86 369 86 L 374 86 374 71.968 C 374 56.724, 373.191 53.283, 368.615 49.063 C 366.571 47.178, 364.673 46.561, 360.236 46.338 C 357.081 46.180, 353.825 46.323, 353 46.656 M 388.871 48.006 C 377.172 54.188, 374.288 71.175, 383.298 80.834 C 391.164 89.266, 407.120 89.019, 413.932 80.359 C 416.521 77.067, 416.251 76.050, 412.147 73.654 L 408.954 71.789 406.931 74.360 C 402.410 80.108, 392.347 79.495, 388.709 73.250 L 386.816 70 402.408 70 L 418 70 417.994 66.750 C 417.980 58.508, 412.922 50.119, 406.298 47.351 C 401.640 45.405, 393.193 45.722, 388.871 48.006 M 521.635 48.073 C 519.451 49.791, 519 49.876, 519 48.573 C 519 47.352, 517.880 47, 514 47 L 509 47 509 66.500 L 509 86 514 86 L 519 86 519 73.056 C 519 60.937, 519.149 59.939, 521.333 57.399 C 524.068 54.219, 529.066 53.844, 532.101 56.591 C 533.792 58.122, 534 59.824, 534 72.155 L 534 86 539 86 L 544 86 544.015 73.750 C 544.031 60.397, 544.891 57.299, 549.151 55.257 C 552.589 53.608, 557.332 55.239, 558.862 58.597 C 559.518 60.036, 560 66.369, 560 73.547 L 560 86 565.072 86 L 570.144 86 569.822 71.250 C 569.462 54.762, 568.663 52.030, 563.102 48.287 C 557.397 44.447, 547.110 45.547, 543.057 50.432 C 541.902 51.822, 541.381 51.664, 538.345 48.998 C 535.465 46.469, 534.096 46, 529.600 46 C 525.722 46, 523.552 46.565, 521.635 48.073 M 604 46.656 C 603.175 46.989, 601.712 47.947, 600.750 48.785 C 599.174 50.158, 599 50.145, 599 48.655 C 599 47.336, 597.986 47, 594 47 L 589 47 589 66.500 L 589 86 594 86 L 599 86 599 73.056 C 599 61.040, 599.161 59.932, 601.250 57.611 C 604.491 54.008, 609.736 53.736, 613 57 C 614.802 58.802, 615 60.333, 615 72.500 L 615 86 620 86 L 625 86 625 71.968 C 625 56.724, 624.191 53.283, 619.615 49.063 C 617.571 47.178, 615.673 46.561, 611.236 46.338 C 608.081 46.180, 604.825 46.323, 604 46.656 M 198.022 60.750 C 198.047 76.602, 199.498 81.504, 205.192 84.976 C 209.516 87.612, 216.458 87.628, 220.750 85.011 C 223.402 83.394, 224 83.303, 224 84.515 C 224 85.608, 225.186 86, 228.500 86 L 233 86 233 66.500 L 233 47 228.500 47 L 224 47 223.994 57.750 C 223.986 74.288, 222.078 78.420, 214.550 78.206 C 208.935 78.047, 208 75.505, 208 60.389 L 208 47 203 47 L 198 47 198.022 60.750 M 239 66.500 L 239 86 244 86 L 249 86 249 73.111 C 249 62.232, 249.278 59.878, 250.784 58.018 C 252.642 55.724, 255.987 55.086, 259.630 56.331 C 261.452 56.953, 262.001 56.454, 263.435 52.872 C 264.790 49.484, 264.861 48.528, 263.805 47.858 C 261.604 46.462, 253.577 46.908, 251.223 48.557 C 249.211 49.966, 249 49.966, 249 48.557 C 249 47.355, 247.859 47, 244 47 L 239 47 239 66.500 M 324 66.500 L 324 86 329 86 L 334 86 334 66.500 L 334 47 329 47 L 324 47 324 66.500 M 575 66.500 L 575 86 580 86 L 585 86 585 66.500 L 585 47 580 47 L 575 47 575 66.500 M 439.661 59.515 C 438.198 63.911, 437 67.843, 437 68.253 C 437 68.664, 439.505 69, 442.567 69 C 447.755 69, 448.090 68.858, 447.473 66.916 C 447.109 65.769, 445.802 61.837, 444.567 58.178 L 442.323 51.524 439.661 59.515 M 280.990 55.759 C 271.923 60.283, 272.285 73.714, 281.578 77.597 C 290.202 81.200, 298.563 71.069, 294.664 61.739 C 292.109 55.624, 286.327 53.095, 280.990 55.759 M 395.333 54.699 C 392.898 55.169, 388 59.346, 388 60.952 C 388 61.613, 391.696 62, 398 62 C 404.290 62, 408 61.612, 408 60.955 C 408 59.388, 403.304 55, 401.627 55 C 400.822 55, 399.564 54.838, 398.832 54.640 C 398.099 54.443, 396.525 54.469, 395.333 54.699 M 481.313 55.176 C 469.161 58.410, 471.777 78.200, 484.356 78.200 C 490.972 78.200, 495.004 73.692, 494.996 66.300 C 494.993 63.277, 491.999 56, 490.758 56 C 490.609 56, 489.140 55.624, 487.493 55.164 C 485.847 54.704, 483.066 54.710, 481.313 55.176" stroke="none" fill="#fbfbfc" fill-rule="evenodd"/></svg>