<svg xmlns="http://www.w3.org/2000/svg" width="642" height="133" viewBox="0 0 642 133" version="1.1"><path d="M 105.690 30.750 C 105.455 31.163, 104.741 33.121, 104.102 35.103 C 102.992 38.550, 99.829 41, 96.487 41 C 95.706 41, 93.464 40.235, 91.503 39.300 L 87.938 37.600 84.826 40.713 L 81.713 43.825 83.331 47.869 C 85.151 52.419, 85.089 52.507, 79.348 53.456 C 74.533 54.252, 74.034 55.301, 74.014 64.667 L 74 70.835 78.423 72.524 C 84.483 74.838, 85.929 78.280, 83.505 84.625 L 81.753 89.214 84.846 92.307 L 87.938 95.400 91.503 93.700 C 97.934 90.633, 102.036 92.187, 104.492 98.619 C 106.103 102.835, 106.324 103, 110.378 103 C 114.418 103, 114.664 102.820, 116.416 98.571 C 118.919 92.503, 122.481 91.006, 128.824 93.356 L 133.407 95.055 136.386 92.076 C 139.167 89.294, 139.275 88.911, 138.017 86.298 C 137.275 84.759, 136.554 82.915, 136.415 82.200 C 135.483 77.408, 129.171 76.558, 124.500 80.595 C 119.690 84.753, 116.182 86.143, 110.500 86.143 C 104.876 86.143, 99.918 84.189, 96.460 80.611 C 93.907 77.969, 91 73.403, 91 72.035 C 91 71.346, 100.366 71, 119 71 L 147 71 147 66.633 C 147 62.349, 146.908 62.228, 142.101 60.231 C 136.136 57.752, 134.973 54.608, 137.595 48.054 L 139.287 43.825 136.251 40.789 L 133.214 37.753 128.625 39.505 C 122.330 41.909, 118.916 40.490, 116.416 34.429 C 114.662 30.175, 114.423 30, 110.354 30 C 108.024 30, 105.926 30.337, 105.690 30.750 M 105.397 47.190 C 103.140 47.669, 99.907 49.284, 98.214 50.780 C 96.520 52.276, 94.204 54.283, 93.067 55.240 C 91.930 56.197, 91 58.110, 91 59.490 L 91 62 110.500 62 C 121.225 62, 130 61.638, 130 61.196 C 130 60.753, 128.673 58.299, 127.052 55.742 C 122.501 48.567, 114.261 45.313, 105.397 47.190" stroke="none" fill="#ffffff" fill-rule="evenodd"/><path d="M 81.618 8.077 C 75.347 9.606, 66.307 14.944, 61.912 19.711 C 59.667 22.147, 56.405 27.147, 54.665 30.820 L 51.500 37.500 51.500 66.552 L 51.500 95.604 55.235 103.160 C 59.733 112.262, 65.523 117.931, 74.820 122.335 L 81.500 125.500 110.500 125.500 L 139.500 125.500 146.180 122.335 C 155.477 117.931, 161.267 112.262, 165.765 103.160 L 169.500 95.604 169.500 66.552 L 169.500 37.500 166.335 30.820 C 161.933 21.527, 156.262 15.733, 147.164 11.235 L 139.612 7.500 112.556 7.315 C 97.675 7.213, 83.753 7.556, 81.618 8.077 M 105.690 30.750 C 105.455 31.163, 104.741 33.121, 104.102 35.103 C 102.992 38.550, 99.829 41, 96.487 41 C 95.706 41, 93.464 40.235, 91.503 39.300 L 87.938 37.600 84.826 40.713 L 81.713 43.825 83.331 47.869 C 85.151 52.419, 85.089 52.507, 79.348 53.456 C 74.533 54.252, 74.034 55.301, 74.014 64.667 L 74 70.835 78.423 72.524 C 84.483 74.838, 85.929 78.280, 83.505 84.625 L 81.753 89.214 84.846 92.307 L 87.938 95.400 91.503 93.700 C 97.934 90.633, 102.036 92.187, 104.492 98.619 C 106.103 102.835, 106.324 103, 110.378 103 C 114.418 103, 114.664 102.820, 116.416 98.571 C 118.919 92.503, 122.481 91.006, 128.824 93.356 L 133.407 95.055 136.386 92.076 C 139.167 89.294, 139.275 88.911, 138.017 86.298 C 137.275 84.759, 136.554 82.915, 136.415 82.200 C 135.483 77.408, 129.171 76.558, 124.500 80.595 C 119.690 84.753, 116.182 86.143, 110.500 86.143 C 104.876 86.143, 99.918 84.189, 96.460 80.611 C 93.907 77.969, 91 73.403, 91 72.035 C 91 71.346, 100.366 71, 119 71 L 147 71 147 66.633 C 147 62.349, 146.908 62.228, 142.101 60.231 C 136.136 57.752, 134.973 54.608, 137.595 48.054 L 139.287 43.825 136.251 40.789 L 133.214 37.753 128.625 39.505 C 122.330 41.909, 118.916 40.490, 116.416 34.429 C 114.662 30.175, 114.423 30, 110.354 30 C 108.024 30, 105.926 30.337, 105.690 30.750 M 105.397 47.190 C 103.140 47.669, 99.907 49.284, 98.214 50.780 C 96.520 52.276, 94.204 54.283, 93.067 55.240 C 91.930 56.197, 91 58.110, 91 59.490 L 91 62 110.500 62 C 121.225 62, 130 61.638, 130 61.196 C 130 60.753, 128.673 58.299, 127.052 55.742 C 122.501 48.567, 114.261 45.313, 105.397 47.190" stroke="none" fill="#465fff" fill-rule="evenodd"/><path d="M 332.200 37.200 C 331.540 37.860, 331 39.570, 331 41 C 331 44.355, 332.703 46, 336.177 46 C 338.036 46, 339.496 45.173, 340.592 43.500 C 342.109 41.184, 342.109 40.816, 340.592 38.500 C 338.807 35.776, 334.319 35.081, 332.200 37.200 M 556.200 37.200 C 555.540 37.860, 555 39.570, 555 41 C 555 44.355, 556.703 46, 560.177 46 C 562.036 46, 563.496 45.173, 564.592 43.500 C 566.109 41.184, 566.109 40.816, 564.592 38.500 C 562.807 35.776, 558.319 35.081, 556.200 37.200 M 318 62 L 318 84 322.500 84 L 327 84 327 62 L 327 40 322.500 40 L 318 40 318 62 M 484 45.526 L 484 51.051 480.836 49.415 C 476.468 47.156, 468.341 47.909, 464.042 50.970 C 454.745 57.590, 454.862 75.493, 464.244 82.174 C 468.340 85.090, 476.571 85.790, 480.836 83.585 C 482.602 82.672, 484 82.402, 484 82.974 C 484 83.538, 486.025 84, 488.500 84 L 493 84 493 62 L 493 40 488.500 40 L 484 40 484 45.526 M 189 62.500 L 189 84 202 84 L 215 84 215 80.500 L 215 77 206.500 77 L 198 77 198 71.500 L 198 66 206.500 66 L 215 66 215 62.500 L 215 59 206.500 59 L 198 59 198 53.500 L 198 48 206.500 48 L 215 48 215 44.500 L 215 41 202 41 L 189 41 189 62.500 M 425.250 61.728 C 421.262 73.166, 418 82.856, 418 83.262 C 418 83.668, 419.954 84, 422.342 84 C 426.541 84, 426.723 83.868, 427.882 80 L 429.080 76 437 76 L 444.920 76 446.118 80 C 447.277 83.868, 447.459 84, 451.658 84 C 454.046 84, 455.975 83.662, 455.945 83.250 C 455.915 82.838, 452.652 73.275, 448.695 62 L 441.500 41.500 437 41.216 L 432.500 40.933 425.250 61.728 M 288.500 49.813 C 281.822 54.089, 279 59.076, 279 66.597 C 279 72.559, 280.934 76.857, 285.369 80.751 C 289.747 84.595, 292.481 85.400, 299.012 84.773 C 314.765 83.259, 320.197 61.117, 307.239 51.233 C 302.559 47.664, 292.988 46.938, 288.500 49.813 M 355.750 49.975 C 353.503 51.749, 353 51.858, 353 50.573 C 353 49.405, 351.971 49, 349 49 L 345 49 345 66.500 L 345 84 349.500 84 L 354 84 354 72.111 C 354 58.334, 355.135 55.667, 361 55.667 C 366.865 55.667, 368 58.334, 368 72.111 L 368 84 372.500 84 L 377 84 377 71.468 C 377 53.234, 374.650 48.960, 364.213 48.213 C 359.475 47.874, 358.030 48.175, 355.750 49.975 M 389.500 49.871 C 380.338 55.561, 377.366 65.928, 382.096 75.698 C 387.273 86.392, 404.772 88.461, 412.027 79.238 C 414.652 75.901, 414.540 75.331, 410.891 73.443 C 407.872 71.883, 407.699 71.914, 404.985 74.514 C 400.267 79.034, 391.632 77.877, 389.132 72.390 L 388.043 70 402.021 70 C 415.853 70, 416 69.976, 415.994 67.750 C 415.976 60.329, 411.020 51.742, 405.400 49.394 C 400.644 47.406, 393.104 47.633, 389.500 49.871 M 508.635 50.073 C 506.451 51.791, 506 51.876, 506 50.573 C 506 49.405, 504.971 49, 502 49 L 498 49 498 66.500 L 498 84 502.500 84 L 507 84 507 71.655 C 507 60.554, 507.203 59.126, 509.013 57.488 C 511.653 55.099, 516.882 55.119, 518.642 57.524 C 519.612 58.852, 520 62.898, 520 71.691 L 520 84 524.500 84 L 529 84 529 72.556 C 529 62.047, 529.189 60.892, 531.306 58.431 C 534.016 55.280, 538.126 54.899, 541.033 57.530 C 542.787 59.117, 543 60.649, 543 71.655 L 543 84 547.500 84 L 552 84 552 71.468 C 552 53.230, 549.648 48.955, 539.213 48.220 C 534.400 47.881, 532.937 48.202, 529.926 50.259 L 526.353 52.700 523.621 50.350 C 519.979 47.217, 512.442 47.078, 508.635 50.073 M 579.750 49.975 C 577.503 51.749, 577 51.858, 577 50.573 C 577 49.405, 575.971 49, 573 49 L 569 49 569 66.500 L 569 84 573.500 84 L 578 84 578 72.111 C 578 58.334, 579.135 55.667, 585 55.667 C 590.865 55.667, 592 58.334, 592 72.111 L 592 84 596.500 84 L 601 84 601 71.468 C 601 53.234, 598.650 48.960, 588.213 48.213 C 583.475 47.874, 582.030 48.175, 579.750 49.975 M 220 61.532 C 220 75.388, 221.010 79.289, 225.514 82.832 C 229.240 85.763, 236.699 85.811, 240.365 82.927 C 242.549 81.209, 243 81.124, 243 82.427 C 243 83.595, 244.029 84, 247 84 L 251 84 251 66.500 L 251 49 247.105 49 L 243.211 49 242.855 60.972 C 242.539 71.627, 242.263 73.182, 240.347 75.097 C 237.731 77.713, 233.626 77.876, 230.967 75.470 C 229.213 73.883, 229 72.351, 229 61.345 L 229 49 224.500 49 L 220 49 220 61.532 M 256 66.500 L 256 84 260.470 84 L 264.940 84 265.220 71.262 C 265.499 58.574, 265.511 58.519, 268.158 57.251 C 270.042 56.349, 271.569 56.266, 273.405 56.964 C 275.784 57.869, 276.116 57.658, 277.491 54.368 C 278.314 52.399, 278.738 50.385, 278.434 49.894 C 277.512 48.402, 268.609 48.885, 266.223 50.557 C 264.211 51.966, 264 51.966, 264 50.557 C 264 49.407, 262.954 49, 260 49 L 256 49 256 66.500 M 332 66.500 L 332 84 336.500 84 L 341 84 341 66.500 L 341 49 336.500 49 L 332 49 332 66.500 M 556 66.500 L 556 84 560.500 84 L 565 84 565 66.500 L 565 49 560.500 49 L 556 49 556 66.500 M 293.014 56.759 C 288.285 59.136, 286.226 64.473, 287.893 70.037 C 291.325 81.491, 306 78.624, 306 66.500 C 306 63.004, 305.401 61.392, 303.250 59.094 C 299.612 55.208, 297.196 54.657, 293.014 56.759 M 395.021 56.116 C 391.780 57.409, 389 59.966, 389 61.655 C 389 62.682, 391.128 63, 398 63 C 402.950 63, 407 62.745, 407 62.434 C 407 60.498, 404.355 57.629, 401.452 56.415 C 399.589 55.637, 397.937 55.029, 397.782 55.063 C 397.627 55.098, 396.384 55.572, 395.021 56.116 M 434.554 60.750 C 433.558 63.913, 432.527 67.063, 432.264 67.750 C 431.919 68.651, 433.240 69, 437 69 C 440.760 69, 442.081 68.651, 441.736 67.750 C 441.473 67.063, 440.442 63.913, 439.446 60.750 C 438.450 57.587, 437.349 55, 437 55 C 436.651 55, 435.550 57.587, 434.554 60.750 M 471.025 56.752 C 463.285 60.645, 463.375 72.484, 471.173 76.296 C 474.497 77.921, 475.180 77.952, 478.357 76.624 C 486.968 73.026, 487.038 60.003, 478.466 56.421 C 474.340 54.697, 475.182 54.660, 471.025 56.752" stroke="none" fill="#101828" fill-rule="evenodd"/></svg>